<?xml version="1.0" encoding="UTF-8" standalone="no"?>
<svg
		version="1.1"
		id="svg2"
		width="60"
		height="60"
		viewBox="0 0 258.38266 232.52"
		xmlns="http://www.w3.org/2000/svg"
		xmlns:svg="http://www.w3.org/2000/svg">
	<defs
			id="defs6" />
	<g
			id="g10"
			transform="matrix(1.3333333,0,0,-1.3333333,0,232.52)">
		<g
				id="g14"
				clip-path="none">
			<g
					id="g24"
					transform="translate(7.9219,88.8857)"
					style="display:inline">
				<path
						d="m 0,0 c 0,42.552 40.891,77.839 91.331,77.839 50.44,0 91.331,-34.872 91.331,-77.839 0,-42.968 -39.646,-78.15 -90.087,-78.15 -24.907,0 -19.615,2.491 -25.427,2.491 -5.915,0 -15.567,-7.68 -27.502,-9.654 -11.936,-1.867 -29.164,2.596 -29.164,2.596 0,0 10.171,8.613 13.803,12.661 3.632,3.945 5.397,6.747 5.397,9.757 0,3.009 -4.151,7.057 -4.151,7.057 C 25.531,-53.242 0,-33.315 0,0 Z"
						style="display:inline;fill:#000000;fill-opacity:1;stroke:#000000;stroke-width:6;stroke-linecap:butt;stroke-linejoin:miter;stroke-miterlimit:10;stroke-dasharray:none;stroke-opacity:1"
						id="path26" />
			</g>
			<g
					id="g32"
					transform="translate(1.9219,94.8857)"
					style="display:inline">
				<path
						d="m 0,0 c 0,42.552 40.891,77.839 91.331,77.839 50.44,0 91.331,-34.872 91.331,-77.839 0,-42.968 -39.646,-78.15 -90.087,-78.15 -24.907,0 -19.615,2.491 -25.427,2.491 -5.915,0 -15.567,-7.68 -27.502,-9.654 -11.936,-1.867 -29.164,2.596 -29.164,2.596 0,0 10.171,8.613 13.803,12.661 3.632,3.945 5.397,6.747 5.397,9.757 0,3.009 -4.151,7.057 -4.151,7.057 C 25.531,-53.242 0,-33.315 0,0 Z"
						style="display:inline;fill:#fafafa;fill-opacity:1;stroke:#000000;stroke-width:3;stroke-linecap:butt;stroke-linejoin:miter;stroke-miterlimit:10;stroke-dasharray:none;stroke-opacity:1"
						id="path34" />
			</g>
			<g
					id="g119"
					style="display:inline"
					transform="translate(70.5234,127.8896)">
				<path
						id="path48"
						clip-path="none"
						style="display:inline;opacity:0.1;fill:#000000;fill-opacity:1;fill-rule:nonzero;stroke:none"
						d="m 29.359375,-111.99805 c -10.327479,10.32812 -29.74924736,31.993339 -29.74924736,31.993339 0,0 -1.11012764,53.791078 -1.11012764,81.4500235 l 56.558998,2.4846809 c 0,0 38.329674,-36.2678844 57.933192,-55.8713994 -2.94809,-10.477006 -8.2726,-20.241764 -15.329765,-28.51536 -12.241123,-14.414036 -29.334079,-24.316654 -47.585664,-28.938974 -6.621831,-1.69508 -13.412815,-2.6958 -20.234964,-3.08473 -0.160807,0.16081 -0.321615,0.32162 -0.482422,0.48242 z" />
			</g>
			<g
					id="g60"
					transform="translate(79.9683,83.5732)"
					style="display:inline">
				<path
						d="m 0,0 -0.935,-29.579 c 6.852,1.938 12.766,4.22 17.748,6.85 7.888,4.082 11.831,8.302 11.831,12.662 C 28.644,-4.048 19.095,-0.691 0,0 m 30.617,38.505 c -2.975,0.83 -6.228,1.245 -9.756,1.245 -4.636,0 -11.417,-1.038 -20.342,-3.113 0.138,-1.177 0.207,-2.319 0.207,-3.426 0,-1.868 -0.069,-4.566 -0.207,-8.095 C 0.312,21.518 0.207,18.82 0.207,17.021 v -3.01 c 6.989,2.353 13.977,4.739 20.965,7.161 10.517,4.22 15.776,8.096 15.776,11.624 0,2.491 -2.11,4.394 -6.331,5.709 M 27.503,8.925 c 4.081,-1.453 7.439,-3.874 10.068,-7.264 2.629,-3.321 3.943,-7.126 3.943,-11.417 0,-8.857 -5.05,-16.224 -15.152,-22.106 -8.65,-5.119 -17.748,-7.679 -27.297,-7.679 -3.251,0 -5.292,0.934 -6.123,2.801 -2.698,-0.139 -4.359,2.25 -4.982,7.161 -0.137,1.245 -0.207,4.705 -0.207,10.379 0,6.09 -0.519,15.048 -1.557,26.881 -0.968,11.9 -1.487,20.756 -1.556,26.569 -3.39,1.175 -5.086,3.666 -5.086,7.472 0,5.535 5.535,9.41 16.606,11.624 6.434,1.315 14.182,1.971 23.248,1.971 13.63,0 22.935,-2.94 27.918,-8.821 2.974,-3.529 4.463,-7.508 4.463,-11.935 0,-11.071 -8.095,-19.616 -24.286,-25.636"
						style="display:inline;fill:#000000;fill-opacity:1;fill-rule:nonzero;stroke:none"
						id="path62" />
			</g>
		</g>
	</g>
</svg>
