<?xml version="1.0" encoding="utf-8"?>
<!DOCTYPE svg PUBLIC "-//W3C//DTD SVG 1.1//EN" "http://www.w3.org/Graphics/SVG/1.1/DTD/svg11.dtd">
<svg version="1.1" id="Ebene_1" xmlns="http://www.w3.org/2000/svg" xmlns:xlink="http://www.w3.org/1999/xlink" x="0px" y="0px"
	 width="60" height="60" viewBox="16.243 19.911 193.787 174.39"
	 enable-background="new 16.243 19.911 193.787 174.39" xml:space="preserve">
<path id="Oval_1" display="none" d="M19.789,101.896c0-44.498,41.86-78.396,93.497-78.396c51.635,0,93.497,33.466,93.497,78.396
	c0,44.929-40.587,81.721-92.221,81.721c-25.501,0-20.083-2.607-26.032-2.607c-6.057,0-15.938,8.03-28.155,10.095
	c-12.219,1.954-29.856-2.714-29.856-2.714s10.412-9.007,14.13-13.24c3.719-4.123,5.524-7.054,5.524-10.2
	c0-3.149-4.25-7.383-4.25-7.383S19.789,136.732,19.789,101.896z"/>
<g id="Oval_1_1_">
	<path d="M24.165,105.415c0-42.552,40.891-77.839,91.331-77.839c50.439,0,91.331,34.872,91.331,77.839
		c0,42.968-39.646,78.15-90.087,78.15c-24.907,0-19.615-2.491-25.427-2.491c-5.916,0-15.567,7.68-27.503,9.653
		c-11.935,1.867-29.164-2.596-29.164-2.596s10.171-8.613,13.803-12.661c3.632-3.944,5.397-6.747,5.397-9.757
		c0-3.009-4.151-7.057-4.151-7.057S24.165,138.73,24.165,105.415z"/>
	<path fill="none" stroke="#000000" stroke-width="6" stroke-miterlimit="10" d="M24.165,105.415
		c0-42.552,40.891-77.839,91.331-77.839c50.439,0,91.331,34.872,91.331,77.839c0,42.968-39.646,78.15-90.087,78.15
		c-24.907,0-19.615-2.491-25.427-2.491c-5.916,0-15.567,7.68-27.503,9.653c-11.935,1.867-29.164-2.596-29.164-2.596
		s10.171-8.613,13.803-12.661c3.632-3.944,5.397-6.747,5.397-9.757c0-3.009-4.151-7.057-4.151-7.057S24.165,138.73,24.165,105.415z"
		/>
</g>
<g id="Oval_1_2_">
	<path fill="#F9F9F9" d="M18.165,99.415c0-42.552,40.891-77.839,91.331-77.839c50.439,0,91.331,34.872,91.331,77.839
		c0,42.968-39.646,78.15-90.087,78.15c-24.907,0-19.615-2.491-25.427-2.491c-5.916,0-15.567,7.68-27.503,9.653
		c-11.935,1.867-29.164-2.596-29.164-2.596s10.171-8.613,13.803-12.661c3.632-3.944,5.397-6.747,5.397-9.757
		c0-3.009-4.151-7.057-4.151-7.057S18.165,132.73,18.165,99.415z"/>
	<path fill="none" stroke="#000000" stroke-width="3" stroke-miterlimit="10" d="M18.165,99.415
		c0-42.552,40.891-77.839,91.331-77.839c50.439,0,91.331,34.872,91.331,77.839c0,42.968-39.646,78.15-90.087,78.15
		c-24.907,0-19.615-2.491-25.427-2.491c-5.916,0-15.567,7.68-27.503,9.653c-11.935,1.867-29.164-2.596-29.164-2.596
		s10.171-8.613,13.803-12.661c3.632-3.944,5.397-6.747,5.397-9.757c0-3.009-4.151-7.057-4.151-7.057S18.165,132.73,18.165,99.415z"
		/>
</g>
<g opacity="0.1">
	<defs>
		
			<rect id="SVGID_1_" x="78.875" y="43.891" transform="matrix(0.7071 -0.7071 0.7071 0.7071 -46.3311 125.3763)" opacity="0.1" width="98.604" height="149.447"/>
	</defs>
	<clipPath id="SVGID_2_">
		<use xlink:href="#SVGID_1_"  overflow="visible"/>
	</clipPath>
	<path id="Oval_2" clip-path="url(#SVGID_2_)" d="M86.767,66.411l54.902-2.076c0,0,5.292-36.221,12.351-32.9
		c27.918,13.285,46.808,38.816,46.808,67.98c0,42.968-39.646,78.15-90.087,78.15c-24.907,0-25.427-2.491-25.427-2.491l1.453-30.201
		V66.411z"/>
</g>
<path id="B" d="M123.715,101.803c4.081,1.453,7.438,3.874,10.067,7.264c2.629,3.321,3.943,7.126,3.943,11.417
	c0,8.857-5.05,16.225-15.152,22.106c-8.649,5.119-17.748,7.679-27.296,7.679c-3.251,0-5.292-0.934-6.124-2.801
	c-2.698,0.139-4.358-2.25-4.981-7.161c-0.138-1.245-0.208-4.705-0.208-10.379c0-6.09-0.519-15.048-1.557-26.881
	c-0.969-11.9-1.487-20.756-1.557-26.569c-3.39-1.176-5.085-3.667-5.085-7.472c0-5.535,5.535-9.41,16.605-11.624
	c6.435-1.315,14.183-1.971,23.248-1.971c13.63,0,22.936,2.94,27.918,8.821C146.512,67.76,148,71.739,148,76.167
	C148,87.238,139.905,95.782,123.715,101.803z M126.828,72.223c-2.975-0.83-6.228-1.245-9.756-1.245
	c-4.636,0-11.417,1.038-20.342,3.113c0.138,1.177,0.207,2.318,0.207,3.425c0,1.869-0.069,4.566-0.207,8.095
	c-0.207,3.598-0.312,6.296-0.312,8.096v3.01c6.989-2.353,13.977-4.74,20.965-7.162c10.517-4.22,15.775-8.095,15.775-11.624
	C133.159,75.44,131.05,73.538,126.828,72.223L126.828,72.223z M96.211,110.728l-0.935,29.579c6.851-1.938,12.765-4.22,17.748-6.851
	c7.888-4.081,11.831-8.302,11.831-12.661C124.855,114.775,115.307,111.419,96.211,110.728z"/>
</svg>
